<svg width="38" height="23" viewBox="0 0 38 23" fill="none" xmlns="http://www.w3.org/2000/svg">
<path id="Vector" fill-rule="evenodd" clip-rule="evenodd" d="M18.5928 22.9037H20.8642C20.8642 22.9037 21.5503 22.8233 21.9005 22.4232C22.2229 22.0554 22.2126 21.3647 22.2126 21.3647C22.2126 21.3647 22.1683 18.1312 23.5823 17.6551C24.9772 17.186 26.7672 20.7802 28.6651 22.1621C30.1002 23.208 31.1908 22.9787 31.1908 22.9787L36.2653 22.9037C36.2653 22.9037 38.92 22.7297 37.6613 20.5153C37.5581 20.3341 36.9282 18.8772 33.8877 15.8834C30.7053 12.7501 31.132 13.2569 34.9654 7.83698C37.2997 4.53619 38.2329 2.52102 37.9409 1.65792C37.6628 0.835869 35.946 1.05315 35.946 1.05315L30.2323 1.09091C30.2323 1.09091 29.8083 1.02961 29.4946 1.22883C29.1877 1.42367 28.9906 1.87903 28.9906 1.87903C28.9906 1.87903 28.0858 4.43329 26.8802 6.60554C24.3359 11.1892 23.3187 11.4317 22.9029 11.1465C21.9351 10.4832 22.177 8.48225 22.177 7.05981C22.177 2.61789 22.8121 0.765812 20.9405 0.286373C20.3194 0.127108 19.8624 0.0220255 18.2735 0.00505912C16.2348 -0.016833 14.5092 0.0116281 13.5322 0.519526C12.8822 0.857213 12.3807 1.60976 12.6861 1.65299C13.0637 1.70608 13.9191 1.89764 14.372 2.55221C14.9575 3.3978 14.9369 5.2953 14.9369 5.2953C14.9369 5.2953 15.2732 10.5242 14.1512 11.1739C13.381 11.6194 12.3245 10.7098 10.0562 6.55136C8.89452 4.42125 8.01651 2.06675 8.01651 2.06675C8.01651 2.06675 7.84731 1.62672 7.54552 1.39138C7.17926 1.10624 6.66804 1.01538 6.66804 1.01538L1.23855 1.05315C1.23855 1.05315 0.423483 1.07723 0.12428 1.45323C-0.142423 1.78818 0.103122 2.47942 0.103122 2.47942C0.103122 2.47942 4.35386 13.0303 9.16689 18.3474C13.5817 23.2233 18.5928 22.9037 18.5928 22.9037Z" fill="white"/>
</svg>
