<svg width="30" height="30" viewBox="0 0 30 30" fill="none" xmlns="http://www.w3.org/2000/svg">
<path id="kisspng-computer-icons-telegram-logo-5aebe3921d1449.7379142015254086581191-PhotoRoom 1 (Traced)" fill-rule="evenodd" clip-rule="evenodd" d="M26.7879 0.225085C26.4705 0.353661 24.7503 1.14733 22.9651 1.98871C21.1799 2.83009 17.5446 4.54062 14.8867 5.78977C12.2287 7.03901 8.59342 8.74905 6.80824 9.58987C5.02305 10.4307 3.20541 11.28 2.76903 11.4772C0.994445 12.2792 0.504547 12.651 0.171889 13.4481C-0.291033 14.5574 0.207954 15.8781 1.34557 16.5544C1.57847 16.6929 3.03136 17.2787 4.57419 17.856C6.11703 18.4334 7.40085 18.9326 7.4271 18.9654C7.45335 18.9982 7.87033 20.4734 8.35367 22.2435C9.46481 26.3124 9.63597 26.8982 9.85791 27.393C10.2928 28.3623 10.6883 28.6722 11.4966 28.6773C11.8825 28.6797 12.078 28.6373 12.3261 28.4975C12.5046 28.3969 13.3955 27.5551 14.3059 26.6268C15.2164 25.6984 15.9791 24.9392 16.001 24.9395C16.0228 24.9398 17.2741 25.9944 18.7816 27.2831C20.2891 28.5718 21.6686 29.7006 21.8471 29.7916C22.2969 30.0208 23.258 30.0705 23.8043 29.8928C24.523 29.659 25.0804 29.1342 25.4361 28.3565C25.5179 28.1775 25.7148 27.271 25.8813 26.3063C26.0455 25.3551 26.2264 24.3234 26.2834 24.0137C26.4112 23.3194 26.9915 20.003 27.4379 17.4158C27.6212 16.3538 27.8656 14.9598 27.9809 14.3181C28.0963 13.6764 28.3563 12.1919 28.5588 11.0192C29.1959 7.32843 29.8534 3.58965 29.9269 3.23916C30.1149 2.3425 29.9331 1.36289 29.4654 0.753312C28.8823 -0.0065628 27.8584 -0.208601 26.7879 0.225085ZM27.6174 2.78536C27.6174 2.8972 26.6122 8.72194 26.3908 9.89273C26.3532 10.0919 26.0611 11.7574 25.7418 13.5939C25.4225 15.4305 25.0985 17.277 25.0217 17.6975C24.9451 18.1179 24.6682 19.6929 24.4065 21.1975C23.8069 24.6452 23.5316 26.2199 23.4242 26.8159C23.3187 27.4015 23.1217 27.5926 22.8054 27.4166C22.6087 27.3071 21.1826 26.1007 16.4568 22.0464L15.8631 21.537L15.1587 22.2524C14.7714 22.6457 13.8819 23.5561 13.1821 24.2752C12.4824 24.9943 11.8899 25.5826 11.8655 25.5826C11.8412 25.5826 11.8212 25.4832 11.8212 25.3615C11.8212 25.1661 12.3425 21.3739 12.5506 20.0559L12.6292 19.558L13.4677 18.688C13.9288 18.2096 15.1028 16.9854 16.0764 15.9675C17.0501 14.9497 19.2499 12.6575 20.9649 10.8739C24.176 7.53417 24.2643 7.42499 23.972 7.15439C23.7953 6.99082 23.5087 7.13444 22.1717 8.05693C19.7127 9.75361 15.7492 12.491 12.58 14.6815L9.3357 16.9239L6.23265 15.766C4.52601 15.1291 3.01701 14.5571 2.87924 14.4948L2.62888 14.3815L2.84318 14.2557C2.96111 14.1866 3.57687 13.8873 4.2116 13.5906C4.84634 13.2939 9.48782 11.1139 14.526 8.746C23.4323 4.56025 27.1793 2.80354 27.401 2.70972C27.5819 2.6332 27.6174 2.6456 27.6174 2.78536Z" fill="white"/>
</svg>
