<svg width="55" height="31" viewBox="0 0 55 31" fill="none" xmlns="http://www.w3.org/2000/svg">
<path d="M19.8386 15C19.8386 18.883 16.7238 22 12.9193 22C9.11482 22 6 18.883 6 15C6 11.117 9.11482 8 12.9193 8C16.7238 8 19.8386 11.117 19.8386 15Z" stroke="#40BCCD" stroke-width="4"/>
<path d="M48.573 15C48.573 18.883 45.4582 22 41.6537 22C37.8492 22 34.7344 18.883 34.7344 15C34.7344 11.117 37.8492 8 41.6537 8C45.4582 8 48.573 11.117 48.573 15Z" stroke="#40BCCD" stroke-width="4"/>
<path d="M20.0448 14.1951C22.0224 11.875 27.5899 8.54863 34.0394 13.8036" stroke="#40BCCD" stroke-width="4" stroke-linecap="round"/>
</svg>
