<svg width="33" height="20" viewBox="0 0 33 20" fill="none" xmlns="http://www.w3.org/2000/svg">
<path d="M12.9586 9.5C12.9586 11.713 11.1731 13.5 8.97932 13.5C6.78551 13.5 5 11.713 5 9.5C5 7.28695 6.78551 5.5 8.97932 5.5C11.1731 5.5 12.9586 7.28695 12.9586 9.5Z" stroke="#40BCCD" stroke-width="2"/>
<path d="M28.9977 9.5C28.9977 11.713 27.2122 13.5 25.0184 13.5C22.8246 13.5 21.0391 11.713 21.0391 9.5C21.0391 7.28695 22.8246 5.5 25.0184 5.5C27.2122 5.5 28.9977 7.28695 28.9977 9.5Z" stroke="#40BCCD" stroke-width="2"/>
<path d="M12.9609 9.05273C14.0649 7.7638 17.173 5.9158 20.7735 8.83524" stroke="#40BCCD" stroke-width="2" stroke-linecap="round"/>
</svg>
