<svg width="25" height="24" viewBox="0 0 25 24" fill="none" xmlns="http://www.w3.org/2000/svg">
<g id="place">
<path id="Vector" d="M20.8307 10C20.8307 16 12.4974 22 12.4974 22C12.4974 22 4.16406 16 4.16406 10C4.16406 7.87827 5.04204 5.84344 6.60484 4.34315C8.16764 2.84285 10.2873 2 12.4974 2C14.7075 2 16.8272 2.84285 18.39 4.34315C19.9528 5.84344 20.8307 7.87827 20.8307 10Z" stroke="#40BCCD" stroke-width="2" stroke-linecap="round" stroke-linejoin="round"/>
<path id="Vector_2" d="M12.5 13C14.2259 13 15.625 11.6569 15.625 10C15.625 8.34315 14.2259 7 12.5 7C10.7741 7 9.375 8.34315 9.375 10C9.375 11.6569 10.7741 13 12.5 13Z" stroke="#40BCCD" stroke-width="2" stroke-linecap="round" stroke-linejoin="round"/>
</g>
</svg>
