<svg width="82" height="82" viewBox="0 0 82 82" fill="none" xmlns="http://www.w3.org/2000/svg">
<path d="M68.3307 34.1666C68.3307 54.6666 40.9974 75.1666 40.9974 75.1666C40.9974 75.1666 13.6641 54.6666 13.6641 34.1666C13.6641 26.9173 16.5438 19.965 21.6698 14.839C26.7958 9.71301 33.7481 6.83325 40.9974 6.83325C48.2466 6.83325 55.199 9.71301 60.325 14.839C65.451 19.965 68.3307 26.9173 68.3307 34.1666Z" stroke="white" stroke-width="4" stroke-linecap="round" stroke-linejoin="round"/>
<path d="M41 44.4167C46.6609 44.4167 51.25 39.8277 51.25 34.1667C51.25 28.5058 46.6609 23.9167 41 23.9167C35.3391 23.9167 30.75 28.5058 30.75 34.1667C30.75 39.8277 35.3391 44.4167 41 44.4167Z" stroke="white" stroke-width="4" stroke-linecap="round" stroke-linejoin="round"/>
</svg>
