<svg width="50" height="50" viewBox="0 0 50 50" fill="none" xmlns="http://www.w3.org/2000/svg">
<path d="M25 50C38.8071 50 50 38.8071 50 25C50 11.1929 38.8071 0 25 0C11.1929 0 8.33072e-08 11.1929 1.86072e-07 25C2.88836e-07 38.8071 11.1929 50 25 50Z" fill="#40BCCD"/>
<path fill-rule="evenodd" clip-rule="evenodd" d="M36.7879 10.2251C36.4705 10.3537 34.7503 11.1473 32.9651 11.9887C31.1799 12.8301 27.5446 14.5406 24.8867 15.7898C22.2287 17.039 18.5934 18.7491 16.8082 19.5899C15.0231 20.4307 13.2054 21.28 12.769 21.4772C10.9944 22.2792 10.5045 22.651 10.1719 23.4481C9.70897 24.5574 10.208 25.8781 11.3456 26.5544C11.5785 26.6929 13.0314 27.2787 14.5742 27.856C16.117 28.4334 17.4008 28.9326 17.4271 28.9654C17.4534 28.9982 17.8703 30.4734 18.3537 32.2435C19.4648 36.3124 19.636 36.8982 19.8579 37.393C20.2928 38.3623 20.6883 38.6722 21.4966 38.6773C21.8825 38.6797 22.078 38.6373 22.3261 38.4975C22.5046 38.3969 23.3955 37.5551 24.3059 36.6268C25.2164 35.6984 25.9791 34.9392 26.001 34.9395C26.0228 34.9398 27.2741 35.9944 28.7816 37.2831C30.2891 38.5718 31.6686 39.7006 31.8471 39.7916C32.2969 40.0208 33.258 40.0705 33.8043 39.8928C34.523 39.659 35.0804 39.1342 35.4361 38.3565C35.5179 38.1775 35.7148 37.271 35.8813 36.3063C36.0455 35.3551 36.2264 34.3234 36.2834 34.0137C36.4112 33.3194 36.9915 30.003 37.4379 27.4158C37.6212 26.3538 37.8656 24.9598 37.9809 24.3181C38.0963 23.6764 38.3563 22.1919 38.5588 21.0192C39.1959 17.3284 39.8534 13.5896 39.9269 13.2392C40.1149 12.3425 39.9331 11.3629 39.4654 10.7533C38.8823 9.99344 37.8584 9.7914 36.7879 10.2251ZM37.6174 12.7854C37.6174 12.8972 36.6122 18.7219 36.3908 19.8927C36.3532 20.0919 36.0611 21.7574 35.7418 23.5939C35.4225 25.4305 35.0985 27.277 35.0217 27.6975C34.9451 28.1179 34.6682 29.6929 34.4065 31.1975C33.8069 34.6452 33.5316 36.2199 33.4242 36.8159C33.3187 37.4015 33.1217 37.5926 32.8054 37.4166C32.6087 37.3071 31.1826 36.1007 26.4568 32.0464L25.8631 31.537L25.1587 32.2524C24.7714 32.6457 23.8819 33.5561 23.1821 34.2752C22.4824 34.9943 21.8899 35.5826 21.8655 35.5826C21.8412 35.5826 21.8212 35.4832 21.8212 35.3615C21.8212 35.1661 22.3425 31.3739 22.5506 30.0559L22.6292 29.558L23.4677 28.688C23.9288 28.2096 25.1028 26.9854 26.0764 25.9675C27.0501 24.9497 29.2499 22.6575 30.9649 20.8739C34.176 17.5342 34.2643 17.425 33.972 17.1544C33.7953 16.9908 33.5087 17.1344 32.1717 18.0569C29.7127 19.7536 25.7492 22.491 22.58 24.6815L19.3357 26.9239L16.2326 25.766C14.526 25.1291 13.017 24.5571 12.8792 24.4948L12.6289 24.3815L12.8432 24.2557C12.9611 24.1866 13.5769 23.8873 14.2116 23.5906C14.8463 23.2939 19.4878 21.1139 24.526 18.746C33.4323 14.5602 37.1793 12.8035 37.401 12.7097C37.5819 12.6332 37.6174 12.6456 37.6174 12.7854Z" fill="white"/>
</svg>
