<svg width="50" height="50" viewBox="0 0 50 50" fill="none" xmlns="http://www.w3.org/2000/svg">
<circle cx="25" cy="25" r="25" fill="#40BCCD"/>
<path fill-rule="evenodd" clip-rule="evenodd" d="M24.6785 33.9246H26.4717C26.4717 33.9246 27.0134 33.8617 27.2899 33.5486C27.5444 33.2607 27.5363 32.7202 27.5363 32.7202C27.5363 32.7202 27.5013 30.1897 28.6176 29.817C29.7188 29.4499 31.132 32.2627 32.6303 33.3443C33.7633 34.1628 34.6243 33.9833 34.6243 33.9833L38.6305 33.9246C38.6305 33.9246 40.7263 33.7884 39.7326 32.0554C39.6511 31.9137 39.1539 30.7735 36.7535 28.4305C34.2411 25.9784 34.5779 26.375 37.6042 22.1333C39.4471 19.5501 40.1838 17.973 39.9533 17.2975C39.7338 16.6542 38.3784 16.8242 38.3784 16.8242L33.8676 16.8538C33.8676 16.8538 33.5328 16.8058 33.2852 16.9617C33.0429 17.1142 32.8873 17.4705 32.8873 17.4705C32.8873 17.4705 32.173 19.4695 31.2212 21.1696C29.2126 24.7568 28.4095 24.9465 28.0812 24.7234C27.3172 24.2042 27.5082 22.6383 27.5082 21.5251C27.5082 18.0488 28.0095 16.5993 26.532 16.2241C26.0416 16.0995 25.6808 16.0172 24.4264 16.004C22.8169 15.9868 21.4546 16.0091 20.6833 16.4066C20.1701 16.6709 19.7743 17.2598 20.0154 17.2936C20.3135 17.3352 20.9887 17.4851 21.3463 17.9974C21.8085 18.6591 21.7923 20.1441 21.7923 20.1441C21.7923 20.1441 22.0578 24.2364 21.172 24.7448C20.5639 25.0934 19.7299 24.3816 17.9391 21.1272C17.022 19.4601 16.3288 17.6175 16.3288 17.6175C16.3288 17.6175 16.1952 17.2731 15.957 17.0889C15.6678 16.8658 15.2642 16.7946 15.2642 16.7946L10.9778 16.8242C10.9778 16.8242 10.3343 16.843 10.0981 17.1373C9.88756 17.3994 10.0814 17.9404 10.0814 17.9404C10.0814 17.9404 13.4373 26.1977 17.237 30.3588C20.7224 34.1748 24.6785 33.9246 24.6785 33.9246Z" fill="white"/>
</svg>
